<?xml version="1.0" encoding="UTF-8"?>
<svg version="1.1" xmlns="http://www.w3.org/2000/svg" width="512" height="512">
<path d="M0 0 C3.72349285 0.01031231 7.44695148 0.0006849 11.1704464 -0.00554466 C17.4168169 -0.01276917 23.66299664 -0.00337173 29.909338 0.01581764 C37.07359853 0.03757639 44.23740329 0.03052129 51.40165281 0.00851202 C57.61467042 -0.00979205 63.82755292 -0.01212797 70.04058886 -0.0017333 C73.72424476 0.00442022 77.40768835 0.00556793 81.09132957 -0.00787926 C100.66826969 -0.06966183 119.91738409 0.33700953 138.2164669 8.16230202 C139.43922325 8.66999123 139.43922325 8.66999123 140.68668175 9.18793678 C153.25564699 14.60314556 164.24202597 21.89034667 173.9664669 31.53730202 C174.8120919 32.34167702 175.6577169 33.14605202 176.5289669 33.97480202 C177.7355294 35.24323952 177.7355294 35.24323952 178.9664669 36.53730202 C179.94679893 37.54277077 179.94679893 37.54277077 180.94693565 38.56855202 C201.43707171 60.29303361 210.95180877 89.1422706 210.2789669 118.77558327 C209.81453497 128.58477264 206.43817592 136.25662937 199.9664669 143.53730202 C199.5230294 144.1186692 199.0795919 144.70003639 198.6227169 145.29902077 C179.09477185 168.41055149 129.43439215 170.79405289 101.79654503 173.22870827 C-65.4212702 186.7016378 -65.4212702 186.7016378 -120.29525185 146.89667702 C-126.98487175 140.91810132 -131.57116485 131.42328626 -132.17025185 122.5011692 C-133.49404666 91.96478699 -124.42723367 63.5115763 -104.0335331 40.53730202 C-103.37224403 39.72132545 -102.71095497 38.90534889 -102.02962685 38.06464577 C-76.05266085 6.96129559 -38.29034453 -0.1397795 0 0 Z " fill="#FFFFFF" transform="translate(217.03353309631348,294.4626979827881)"/>
<path d="M0 0 C22.84658021 19.52397588 36.80891536 43.80298389 39.58569336 74.06274414 C41.67810417 101.60367695 33.24546667 129.71823865 15.28515625 150.90625 C-2.36331203 170.93371831 -27.00087769 185.33969124 -53.96484375 187.59375 C-84.99488253 189.38110647 -113.31937826 182.02669196 -136.96679688 161.30883789 C-157.81894699 142.33207357 -170.29017761 116.20775685 -171.89038086 87.97436523 C-172.85877351 59.85746988 -163.60968904 32.72605693 -144.5859375 11.8046875 C-133.14016386 -0.31990541 -120.4818683 -9.18767 -104.96484375 -15.40625 C-104.03800781 -15.78394531 -103.11117187 -16.16164063 -102.15625 -16.55078125 C-68.1061051 -29.16019691 -28.34735498 -22.28109732 0 0 Z " fill="#FFFFFF" transform="translate(321.96484375,64.40625)"/>
</svg>
